<svg width="68" height="95" viewBox="0 0 68 95" fill="none" xmlns="http://www.w3.org/2000/svg">
<path d="M67.7105 90.4482C67.7105 92.9272 65.7041 94.942 63.225 94.942L5.22014 95.0083C3.24684 95.0083 1.57203 93.7398 0.966778 91.9737C0.809246 91.5177 0.726334 91.0368 0.726334 90.5311L0.635132 6.88167C0.635132 4.40261 2.64159 2.38786 5.12064 2.38786L58.383 2.32982L63.1255 2.32153C65.6046 2.32153 67.6193 4.32799 67.6193 6.80704L67.7105 90.4482Z" fill="url(#paint0_linear_33_44)"/>
<path d="M61.6995 89.9672L6.73742 90.0252C5.40254 90.0252 4.32469 88.9474 4.32469 87.6125L4.24178 9.76691C4.24178 8.43203 5.31963 7.35418 6.65451 7.35418L61.6083 7.29614C62.9431 7.29614 64.021 8.37399 64.021 9.70887L64.1039 87.5545C64.1122 88.8811 63.0343 89.9672 61.6995 89.9672Z" fill="white"/>
<path d="M53.9804 13.7135L13.8927 13.7632C12.5661 13.7632 11.4799 12.6854 11.4799 11.3588L11.4717 4.6761C11.4717 3.34952 12.5495 2.26338 13.8761 2.26338L53.9721 2.22192C55.2987 2.22192 56.3848 3.29977 56.3848 4.62636L56.3931 11.309C56.3848 12.6356 55.307 13.7135 53.9804 13.7135ZM13.8761 3.49047C13.2294 3.49047 12.6987 4.0211 12.6987 4.66781L12.707 11.3505C12.707 11.9972 13.2377 12.5278 13.8844 12.5278L53.9804 12.4864C54.6271 12.4864 55.1577 11.9557 55.1577 11.309L55.1494 4.62636C55.1494 3.97965 54.6188 3.44901 53.9721 3.44901L13.8761 3.49047Z" fill="url(#paint1_linear_33_44)"/>
<path d="M52.8445 5.11564L15.4099 5.1571C14.9954 5.1571 14.6637 4.82545 14.6637 4.41089V0.787659C14.6637 0.373102 14.9954 0.0414557 15.4099 0.0414557L52.8362 0C53.2508 0 53.5824 0.331646 53.5824 0.746203V4.36944C53.5907 4.78399 53.2591 5.11564 52.8445 5.11564Z" fill="url(#paint2_linear_33_44)"/>
<path d="M15.4431 5.15714L52.8113 5.11568C53.2425 5.11568 53.5907 4.76746 53.5907 4.33632V2.56201L14.6555 2.60347V4.37777C14.6555 4.80891 15.012 5.15714 15.4431 5.15714Z" fill="#58D6F4"/>
<defs>
<linearGradient id="paint0_linear_33_44" x1="-8.65355" y1="34.748" x2="76.9992" y2="62.5782" gradientUnits="userSpaceOnUse">
<stop stop-color="#6CBCFC"/>
<stop offset="0.1713" stop-color="#5EABFC"/>
<stop offset="0.4084" stop-color="#509AFC"/>
<stop offset="0.6698" stop-color="#4890FC"/>
<stop offset="1" stop-color="#458DFC"/>
</linearGradient>
<linearGradient id="paint1_linear_33_44" x1="-4.58986" y1="-21.3751" x2="56.3866" y2="7.98961" gradientUnits="userSpaceOnUse">
<stop stop-color="#CFE9FF"/>
<stop offset="1" stop-color="#A1D6FB"/>
</linearGradient>
<linearGradient id="paint2_linear_33_44" x1="14.6543" y1="2.57952" x2="53.59" y2="2.57952" gradientUnits="userSpaceOnUse">
<stop stop-color="#B0F4FF"/>
<stop offset="1" stop-color="#69DCFC"/>
</linearGradient>
</defs>
</svg>
